<mxfile host="app.diagrams.net" modified="2023-03-24T09:05:02.728Z" agent="Mozilla/5.0 (Windows NT 10.0; Win64; x64) AppleWebKit/537.36 (KHTML, like Gecko) Chrome/111.0.0.0 Safari/537.36" etag="PdddIJy-pEXwDhaN7Wa-" version="21.1.0" type="device" pages="2">
  <diagram name="协作流程" id="dRFtEXje5AOy7EUQO8F5">
    <mxGraphModel dx="1428" dy="682" grid="1" gridSize="10" guides="1" tooltips="1" connect="1" arrows="1" fold="1" page="1" pageScale="1" pageWidth="827" pageHeight="1169" math="0" shadow="0">
      <root>
        <mxCell id="0" />
        <mxCell id="1" parent="0" />
        <mxCell id="d4yMCNJULWijdKn85JOz-1" value="全流程的国际化方案" style="swimlane;childLayout=stackLayout;resizeParent=1;resizeParentMax=0;horizontal=1;startSize=20;horizontalStack=0;html=1;" parent="1" vertex="1">
          <mxGeometry x="50" y="120" width="610" height="548" as="geometry" />
        </mxCell>
        <mxCell id="d4yMCNJULWijdKn85JOz-2" value="PO" style="swimlane;startSize=20;horizontal=0;html=1;" parent="d4yMCNJULWijdKn85JOz-1" vertex="1">
          <mxGeometry y="20" width="610" height="120" as="geometry" />
        </mxCell>
        <mxCell id="d4yMCNJULWijdKn85JOz-12" value="" style="edgeStyle=orthogonalEdgeStyle;rounded=0;orthogonalLoop=1;jettySize=auto;html=1;" parent="d4yMCNJULWijdKn85JOz-2" source="d4yMCNJULWijdKn85JOz-10" target="d4yMCNJULWijdKn85JOz-11" edge="1">
          <mxGeometry relative="1" as="geometry" />
        </mxCell>
        <mxCell id="d4yMCNJULWijdKn85JOz-10" value="" style="shape=umlActor;verticalLabelPosition=bottom;verticalAlign=top;html=1;outlineConnect=0;" parent="d4yMCNJULWijdKn85JOz-2" vertex="1">
          <mxGeometry x="60" y="30" width="30" height="60" as="geometry" />
        </mxCell>
        <mxCell id="d4yMCNJULWijdKn85JOz-14" value="" style="edgeStyle=orthogonalEdgeStyle;rounded=0;orthogonalLoop=1;jettySize=auto;html=1;" parent="d4yMCNJULWijdKn85JOz-2" source="d4yMCNJULWijdKn85JOz-11" target="d4yMCNJULWijdKn85JOz-13" edge="1">
          <mxGeometry relative="1" as="geometry" />
        </mxCell>
        <mxCell id="d4yMCNJULWijdKn85JOz-11" value="key: 文案" style="whiteSpace=wrap;html=1;verticalAlign=middle;" parent="d4yMCNJULWijdKn85JOz-2" vertex="1">
          <mxGeometry x="190" y="30" width="120" height="60" as="geometry" />
        </mxCell>
        <mxCell id="d4yMCNJULWijdKn85JOz-13" value="导出 .csv .xls .yml" style="whiteSpace=wrap;html=1;" parent="d4yMCNJULWijdKn85JOz-2" vertex="1">
          <mxGeometry x="390" y="30" width="120" height="60" as="geometry" />
        </mxCell>
        <mxCell id="d4yMCNJULWijdKn85JOz-3" value="翻译" style="swimlane;startSize=20;horizontal=0;html=1;" parent="d4yMCNJULWijdKn85JOz-1" vertex="1">
          <mxGeometry y="140" width="610" height="120" as="geometry" />
        </mxCell>
        <mxCell id="d4yMCNJULWijdKn85JOz-22" value="" style="edgeStyle=orthogonalEdgeStyle;rounded=0;orthogonalLoop=1;jettySize=auto;html=1;" parent="d4yMCNJULWijdKn85JOz-3" source="d4yMCNJULWijdKn85JOz-15" target="d4yMCNJULWijdKn85JOz-21" edge="1">
          <mxGeometry relative="1" as="geometry" />
        </mxCell>
        <mxCell id="d4yMCNJULWijdKn85JOz-15" value="" style="shape=umlActor;verticalLabelPosition=bottom;verticalAlign=top;html=1;outlineConnect=0;" parent="d4yMCNJULWijdKn85JOz-3" vertex="1">
          <mxGeometry x="60" y="40" width="30" height="60" as="geometry" />
        </mxCell>
        <mxCell id="d4yMCNJULWijdKn85JOz-21" value="翻译" style="whiteSpace=wrap;html=1;verticalAlign=middle;" parent="d4yMCNJULWijdKn85JOz-3" vertex="1">
          <mxGeometry x="190" y="40" width="120" height="60" as="geometry" />
        </mxCell>
        <mxCell id="d4yMCNJULWijdKn85JOz-4" value="Dev" style="swimlane;startSize=20;horizontal=0;html=1;" parent="d4yMCNJULWijdKn85JOz-1" vertex="1">
          <mxGeometry y="260" width="610" height="288" as="geometry" />
        </mxCell>
        <mxCell id="d4yMCNJULWijdKn85JOz-27" value="" style="edgeStyle=orthogonalEdgeStyle;rounded=0;orthogonalLoop=1;jettySize=auto;html=1;" parent="d4yMCNJULWijdKn85JOz-4" source="d4yMCNJULWijdKn85JOz-17" target="d4yMCNJULWijdKn85JOz-26" edge="1">
          <mxGeometry relative="1" as="geometry" />
        </mxCell>
        <mxCell id="d4yMCNJULWijdKn85JOz-17" value="" style="shape=umlActor;verticalLabelPosition=bottom;verticalAlign=top;html=1;outlineConnect=0;" parent="d4yMCNJULWijdKn85JOz-4" vertex="1">
          <mxGeometry x="60" y="30" width="30" height="60" as="geometry" />
        </mxCell>
        <mxCell id="d4yMCNJULWijdKn85JOz-26" value="本地代码" style="whiteSpace=wrap;html=1;verticalAlign=middle;" parent="d4yMCNJULWijdKn85JOz-4" vertex="1">
          <mxGeometry x="190" y="30" width="120" height="60" as="geometry" />
        </mxCell>
        <mxCell id="d4yMCNJULWijdKn85JOz-35" value="提交" style="rounded=0;whiteSpace=wrap;html=1;" parent="d4yMCNJULWijdKn85JOz-4" vertex="1">
          <mxGeometry x="390" y="30" width="120" height="60" as="geometry" />
        </mxCell>
        <mxCell id="d4yMCNJULWijdKn85JOz-34" value="" style="edgeStyle=orthogonalEdgeStyle;rounded=0;orthogonalLoop=1;jettySize=auto;html=1;entryX=0;entryY=0.5;entryDx=0;entryDy=0;endArrow=none;" parent="d4yMCNJULWijdKn85JOz-4" source="d4yMCNJULWijdKn85JOz-26" target="d4yMCNJULWijdKn85JOz-35" edge="1">
          <mxGeometry relative="1" as="geometry">
            <mxPoint x="310" y="60" as="sourcePoint" />
            <mxPoint x="705" y="145" as="targetPoint" />
          </mxGeometry>
        </mxCell>
        <mxCell id="d4yMCNJULWijdKn85JOz-36" value="行内显示文案" style="shape=image;html=1;verticalAlign=top;verticalLabelPosition=bottom;labelBackgroundColor=#ffffff;imageAspect=0;aspect=fixed;image=https://cdn1.iconfinder.com/data/icons/material-core/23/extension-128.png" parent="d4yMCNJULWijdKn85JOz-4" vertex="1">
          <mxGeometry x="70" y="181" width="48" height="48" as="geometry" />
        </mxCell>
        <mxCell id="d4yMCNJULWijdKn85JOz-37" value="词条存在提示" style="shape=image;html=1;verticalAlign=top;verticalLabelPosition=bottom;labelBackgroundColor=#ffffff;imageAspect=0;aspect=fixed;image=https://cdn1.iconfinder.com/data/icons/material-core/23/extension-128.png" parent="d4yMCNJULWijdKn85JOz-4" vertex="1">
          <mxGeometry x="165" y="181" width="48" height="48" as="geometry" />
        </mxCell>
        <mxCell id="d4yMCNJULWijdKn85JOz-38" value="一键提取" style="shape=image;html=1;verticalAlign=top;verticalLabelPosition=bottom;labelBackgroundColor=#ffffff;imageAspect=0;aspect=fixed;image=https://cdn1.iconfinder.com/data/icons/material-core/23/extension-128.png" parent="d4yMCNJULWijdKn85JOz-4" vertex="1">
          <mxGeometry x="260" y="181" width="48" height="48" as="geometry" />
        </mxCell>
        <mxCell id="d4yMCNJULWijdKn85JOz-23" style="edgeStyle=orthogonalEdgeStyle;rounded=0;orthogonalLoop=1;jettySize=auto;html=1;exitX=0.5;exitY=1;exitDx=0;exitDy=0;dashed=1;" parent="d4yMCNJULWijdKn85JOz-1" source="d4yMCNJULWijdKn85JOz-13" target="d4yMCNJULWijdKn85JOz-21" edge="1">
          <mxGeometry relative="1" as="geometry" />
        </mxCell>
        <mxCell id="d4yMCNJULWijdKn85JOz-24" value="输入" style="edgeLabel;html=1;align=center;verticalAlign=middle;resizable=0;points=[];" parent="d4yMCNJULWijdKn85JOz-23" vertex="1" connectable="0">
          <mxGeometry x="-0.2296" y="3" relative="1" as="geometry">
            <mxPoint as="offset" />
          </mxGeometry>
        </mxCell>
        <mxCell id="d4yMCNJULWijdKn85JOz-31" style="edgeStyle=orthogonalEdgeStyle;rounded=0;orthogonalLoop=1;jettySize=auto;html=1;" parent="1" source="d4yMCNJULWijdKn85JOz-19" target="d4yMCNJULWijdKn85JOz-30" edge="1">
          <mxGeometry relative="1" as="geometry" />
        </mxCell>
        <mxCell id="d4yMCNJULWijdKn85JOz-19" value="Xunadu" style="ellipse;shape=cloud;whiteSpace=wrap;html=1;" parent="1" vertex="1">
          <mxGeometry x="710" y="290" width="120" height="80" as="geometry" />
        </mxCell>
        <mxCell id="d4yMCNJULWijdKn85JOz-20" style="edgeStyle=orthogonalEdgeStyle;rounded=0;orthogonalLoop=1;jettySize=auto;html=1;" parent="1" source="d4yMCNJULWijdKn85JOz-13" target="d4yMCNJULWijdKn85JOz-19" edge="1">
          <mxGeometry relative="1" as="geometry" />
        </mxCell>
        <mxCell id="d4yMCNJULWijdKn85JOz-25" value="完成" style="edgeStyle=orthogonalEdgeStyle;rounded=0;orthogonalLoop=1;jettySize=auto;html=1;" parent="1" source="d4yMCNJULWijdKn85JOz-21" target="d4yMCNJULWijdKn85JOz-19" edge="1">
          <mxGeometry relative="1" as="geometry" />
        </mxCell>
        <mxCell id="d4yMCNJULWijdKn85JOz-32" style="edgeStyle=orthogonalEdgeStyle;rounded=0;orthogonalLoop=1;jettySize=auto;html=1;entryX=0.5;entryY=1;entryDx=0;entryDy=0;" parent="1" source="d4yMCNJULWijdKn85JOz-30" target="d4yMCNJULWijdKn85JOz-26" edge="1">
          <mxGeometry relative="1" as="geometry" />
        </mxCell>
        <mxCell id="d4yMCNJULWijdKn85JOz-30" value="" style="shape=image;html=1;verticalAlign=top;verticalLabelPosition=bottom;labelBackgroundColor=#ffffff;imageAspect=0;aspect=fixed;image=https://cdn4.iconfinder.com/data/icons/socialcones/508/Gitlab-128.png" parent="1" vertex="1">
          <mxGeometry x="740" y="525" width="60" height="60" as="geometry" />
        </mxCell>
        <mxCell id="d4yMCNJULWijdKn85JOz-33" value="校验是否还存在中文" style="edgeStyle=orthogonalEdgeStyle;rounded=0;orthogonalLoop=1;jettySize=auto;html=1;entryX=0.25;entryY=0;entryDx=0;entryDy=0;startArrow=none;" parent="1" source="d4yMCNJULWijdKn85JOz-35" target="d4yMCNJULWijdKn85JOz-30" edge="1">
          <mxGeometry relative="1" as="geometry" />
        </mxCell>
      </root>
    </mxGraphModel>
  </diagram>
  <diagram id="xlY-IwBVdcNK7GmUEMle" name="语言包注册">
    <mxGraphModel dx="1428" dy="682" grid="1" gridSize="10" guides="1" tooltips="1" connect="1" arrows="1" fold="1" page="1" pageScale="1" pageWidth="827" pageHeight="1169" math="0" shadow="0">
      <root>
        <mxCell id="0" />
        <mxCell id="1" parent="0" />
        <mxCell id="cU0uUeVjWrj6S-xDZYug-4" value="" style="edgeStyle=orthogonalEdgeStyle;rounded=0;orthogonalLoop=1;jettySize=auto;html=1;" edge="1" parent="1" source="cU0uUeVjWrj6S-xDZYug-1" target="cU0uUeVjWrj6S-xDZYug-3">
          <mxGeometry relative="1" as="geometry" />
        </mxCell>
        <mxCell id="cU0uUeVjWrj6S-xDZYug-1" value="开始" style="strokeWidth=2;html=1;shape=mxgraph.flowchart.start_1;whiteSpace=wrap;" vertex="1" parent="1">
          <mxGeometry x="230" y="100" width="100" height="60" as="geometry" />
        </mxCell>
        <mxCell id="cU0uUeVjWrj6S-xDZYug-5" style="rounded=0;orthogonalLoop=1;jettySize=auto;html=1;dashed=1;" edge="1" parent="1" source="cU0uUeVjWrj6S-xDZYug-2" target="cU0uUeVjWrj6S-xDZYug-3">
          <mxGeometry relative="1" as="geometry" />
        </mxCell>
        <mxCell id="cU0uUeVjWrj6S-xDZYug-2" value="locale&lt;br&gt;timeZone&lt;br&gt;messages" style="strokeWidth=2;html=1;shape=mxgraph.flowchart.database;whiteSpace=wrap;" vertex="1" parent="1">
          <mxGeometry x="440" y="210" width="70" height="80" as="geometry" />
        </mxCell>
        <mxCell id="cU0uUeVjWrj6S-xDZYug-7" value="" style="edgeStyle=orthogonalEdgeStyle;rounded=0;orthogonalLoop=1;jettySize=auto;html=1;" edge="1" parent="1" source="cU0uUeVjWrj6S-xDZYug-14" target="cU0uUeVjWrj6S-xDZYug-6">
          <mxGeometry relative="1" as="geometry" />
        </mxCell>
        <mxCell id="cU0uUeVjWrj6S-xDZYug-3" value="创建语言包实例" style="whiteSpace=wrap;html=1;strokeWidth=2;" vertex="1" parent="1">
          <mxGeometry x="220" y="240" width="120" height="60" as="geometry" />
        </mxCell>
        <mxCell id="cU0uUeVjWrj6S-xDZYug-9" value="" style="edgeStyle=orthogonalEdgeStyle;rounded=0;orthogonalLoop=1;jettySize=auto;html=1;" edge="1" parent="1" source="cU0uUeVjWrj6S-xDZYug-6" target="cU0uUeVjWrj6S-xDZYug-8">
          <mxGeometry relative="1" as="geometry" />
        </mxCell>
        <mxCell id="cU0uUeVjWrj6S-xDZYug-6" value="注入 Vue" style="whiteSpace=wrap;html=1;strokeWidth=2;" vertex="1" parent="1">
          <mxGeometry x="414" y="490" width="120" height="60" as="geometry" />
        </mxCell>
        <mxCell id="cU0uUeVjWrj6S-xDZYug-11" style="edgeStyle=orthogonalEdgeStyle;rounded=0;orthogonalLoop=1;jettySize=auto;html=1;" edge="1" parent="1" source="cU0uUeVjWrj6S-xDZYug-8" target="cU0uUeVjWrj6S-xDZYug-10">
          <mxGeometry relative="1" as="geometry" />
        </mxCell>
        <mxCell id="cU0uUeVjWrj6S-xDZYug-8" value="业务代码使用" style="whiteSpace=wrap;html=1;strokeWidth=2;" vertex="1" parent="1">
          <mxGeometry x="414" y="600" width="120" height="60" as="geometry" />
        </mxCell>
        <mxCell id="cU0uUeVjWrj6S-xDZYug-10" value="结束" style="strokeWidth=2;html=1;shape=mxgraph.flowchart.start_1;whiteSpace=wrap;" vertex="1" parent="1">
          <mxGeometry x="424" y="720" width="100" height="60" as="geometry" />
        </mxCell>
        <mxCell id="cU0uUeVjWrj6S-xDZYug-13" value="i18nIntl" style="edgeStyle=orthogonalEdgeStyle;rounded=0;orthogonalLoop=1;jettySize=auto;html=1;" edge="1" parent="1" source="cU0uUeVjWrj6S-xDZYug-3" target="cU0uUeVjWrj6S-xDZYug-12">
          <mxGeometry relative="1" as="geometry">
            <mxPoint x="280" y="300" as="sourcePoint" />
            <mxPoint x="280" y="490" as="targetPoint" />
          </mxGeometry>
        </mxCell>
        <mxCell id="cU0uUeVjWrj6S-xDZYug-15" value="" style="edgeStyle=orthogonalEdgeStyle;rounded=0;orthogonalLoop=1;jettySize=auto;html=1;" edge="1" parent="1" source="cU0uUeVjWrj6S-xDZYug-12" target="cU0uUeVjWrj6S-xDZYug-14">
          <mxGeometry relative="1" as="geometry" />
        </mxCell>
        <mxCell id="cU0uUeVjWrj6S-xDZYug-12" value="接口请求语言补丁包" style="whiteSpace=wrap;html=1;strokeWidth=2;" vertex="1" parent="1">
          <mxGeometry x="220" y="370" width="120" height="60" as="geometry" />
        </mxCell>
        <mxCell id="cU0uUeVjWrj6S-xDZYug-14" value="覆盖已有词条" style="whiteSpace=wrap;html=1;strokeWidth=2;" vertex="1" parent="1">
          <mxGeometry x="414" y="370" width="120" height="60" as="geometry" />
        </mxCell>
      </root>
    </mxGraphModel>
  </diagram>
</mxfile>
